<svg fill="none" height="36" viewBox="0 0 143 36" width="143" xmlns="http://www.w3.org/2000/svg" xmlns:xlink="http://www.w3.org/1999/xlink"><clipPath id="a"><path d="m0 0h143v36h-143z"/></clipPath><mask id="b" height="36" maskUnits="userSpaceOnUse" width="143" x="0" y="0"><path d="m0 0h143v36h-143z" fill="#fff"/></mask><g clip-path="url(#a)"><g mask="url(#b)"><path clip-rule="evenodd" d="m.404053 8.24483 15.416947-7.986041 15.5831 7.986041-15.5831 8.01397zm92.554147 3.88277v-.1901c0-2.63444 1.5494-3.47637 4.159-3.28625v-4.80711c-6.2521-.38022-9.2152 2.74304-9.2152 8.09336v.1901h-2.827v4.8071h2.827v14.5571h5.0562v-14.5571h2.9898 1.1692 1.6579v14.5571h5.0559v-14.5571h4.159v-4.8071h-4.159v-.1901c0-2.63444 1.523-3.47637 4.159-3.28625v-4.80711c-6.252-.38022-9.2149 2.74304-9.2149 8.09336v.1901h-1.6579-1.1692zm-35.3384 5.2683c1.6038-1.2765 2.5823-3.0961 2.5823-5.4318 0-4.53548-3.6969-7.63158-8.3453-7.63158h-10.7916v27.10448h11.6615c4.7571 0 8.5627-3.2048 8.5627-7.8489-.0543-2.7974-1.4678-4.9429-3.6696-6.1922zm-5.7357-8.03901c1.7397 0 2.9358 1.27651 2.9358 2.98751s-1.2505 2.9874-2.9358 2.9874h-5.4095v-5.97491zm.8155 17.11001h-6.225v-6.3823h6.225c1.8485 0 3.1804 1.358 3.1804 3.1776 0 1.8468-1.3319 3.2047-3.1804 3.2047zm24.3561-14.3673v10.4561c0 3.3677-1.8485 4.8071-4.3221 4.8071-2.2834 0-3.8873-1.3579-3.8873-3.9923v-11.2709h-5.056v11.8956c0 5.1601 3.2348 8.0118 7.421 8.0118 2.6368 0 4.6755-.9777 5.8172-2.7159v2.1727h5.0561v-19.3642zm51.8933 11.7331h-14.788c.734 2.5529 2.854 3.6393 5.491 3.6393 1.984 0 3.561-.8148 4.404-1.9283l4.077 2.3085c-1.821 2.6344-4.757 4.1553-8.535 4.1553-6.579 0-10.738-4.454-10.738-10.2389 0-5.7848 4.186-10.2388 10.357-10.2388 5.79 0 9.922 4.5355 9.922 10.2388 0 .7605-.082 1.4123-.19 2.0641zm-9.732-7.7674c-2.718 0-4.567 1.4394-5.138 3.9109h10.004c-.625-2.7974-2.746-3.9109-4.866-3.9109zm17.234-.6243v-3.3406h-5.056v19.3642h5.056v-9.2611c0-4.0738 3.317-5.2416 5.954-4.9157v-5.5676c-2.474 0-4.948 1.0864-5.954 3.7208zm-120.63 14.5215-10.51788-5.7037-4.899067 2.6481 15.416947 8.3519 15.5831-8.3519-4.9545-2.6481zm-10.51788-14.7037 10.51788 5.1724 10.6286-5.1724 4.9545 2.4138-15.5831 7.5862-15.416947-7.5862z" fill="#fff" fill-rule="evenodd"/></g></g></svg>