<svg fill="none" height="25" viewBox="0 0 130 25" width="130" xmlns="http://www.w3.org/2000/svg" xmlns:xlink="http://www.w3.org/1999/xlink"><clipPath id="a"><path d="m0 0h130v25h-130z"/></clipPath><mask id="b" height="25" maskUnits="userSpaceOnUse" width="130" x="0" y="0"><path d="m0 0h130v25h-130z" fill="#fff"/></mask><g clip-path="url(#a)"><g mask="url(#b)"><path d="m117.77 24.78v-2.791h.34c1.571 0 2.451-.595 3.175-2.012l.231-.462-5.064-12.98799h3.305l3.386 9.60499 3.362-9.60499h3.229l-5.921 14.97699c-.98 2.044-2.545 3.16-5.703 3.275zm-10.23-4.874v-13.17199h2.89v2.198c1.033-1.496 2.558-2.405 4.414-2.405h.232l1.162 2.967h-1.394c-2.788 0-4.414 1.57399-4.414 4.00099v6.406h-2.89v.007zm-8.371-13.79999c-4.031 0-7.051 2.968-7.051 6.89999 0 3.932 3.02 6.9 7.05 6.9 4.032 0 7.052-2.968 7.052-6.9 0-3.93199-3.02-6.89999-7.051-6.89999zm0 11.00999c-2.32 0-4.077-1.78-4.077-4.11s1.75-4.10899 4.077-4.10899 4.054 1.77999 4.054 4.10999c0 2.328-1.728 4.109-4.054 4.109zm-8.88 2.789c-2.866 0-4.414-1.45-4.414-4.054v-6.48299h-1.99v-2.637h1.112c.671 0 1.032-.363 1.032-1.033v-2.529h2.735v3.562h3.023v2.637h-3.023v6.01999c0 1.164.494 1.858 1.704 1.858h1.319v2.66zm-12.228.204c-3.174 0-5.262-1.704-5.262-4.185h2.945c0 1.011.955 1.682 2.35 1.682 1.295 0 2.142-.593 2.142-1.418 0-2.374-7.228-1.056-7.228-5.735 0-2.55799 2.042-4.13199 4.954-4.13199s5.01 1.627 5.01 4.00099h-2.945c0-.90199-.854-1.52499-2.088-1.52499s-2.012.54-2.012 1.34199c0 2.297 7.251 1.033 7.251 5.735 0 2.558-2.041 4.23-5.108 4.23l-.007.007h-.002zm-9.37-.204v-18.59199h2.889v18.59299zm-4.882 0v-18.59199h2.89v18.59299zm-9.067.31c-3.02 0-5.032-2.012-5.032-5.088v-8.39299h2.889v7.53799c0 1.888 1.21 3.153 3.075 3.153 1.964 0 3.276-1.295 3.276-3.2v-7.48999h2.889v13.17399h-2.89v-1.626c-1.01 1.263-2.45 1.934-4.207 1.934m-14.004 4.783v-2.708c1.34 0 1.672-.758 1.672-2.046v-10.84999h-1.922v-2.683h1.922v-1.376c0-2.841 1.677-4.416997 4.8-4.416997h1.174v2.707997h-.916c-1.34 0-2.122.76-2.122 2.05v1.028h3.038v2.683h-3.038v11.19399c0 2.841-1.484 4.415-4.61 4.415zm-6.196-5.094v-2.862h-11.91l10.256-5.88.06-.034-1.434-2.47599-10.317 5.91399 5.921-10.18599.035-.06-2.458-1.41-.034-.02-5.956 10.24499v-11.82599h-2.873v11.83799l-5.919-10.18899-.034-.06-2.459 1.41-.035.021 5.956 10.24599-10.257-5.87999-.06-.034-1.433 2.47599 10.315 5.914h-11.906v2.855h10.74c3.04-.315 4.674-2.007 5.51-3.374.4771-.7879.8229-1.6481 1.024-2.547.115.524.398 1.52 1.025 2.547.836 1.364 2.469 3.057 5.517 3.374h10.726z" fill="#fff"/></g></g></svg>